<?xml version="1.0" standalone="no"?>
<!DOCTYPE svg PUBLIC "-//W3C//DTD SVG 20010904//EN"
 "http://www.w3.org/TR/2001/REC-SVG-20010904/DTD/svg10.dtd">
<svg version="1.0" xmlns="http://www.w3.org/2000/svg"
 width="577.000000pt" height="577.000000pt" viewBox="0 0 577.000000 577.000000"
 preserveAspectRatio="xMidYMid meet">
<metadata>
Created by potrace 1.14, written by Peter Selinger 2001-2017
</metadata>
<g transform="translate(0.000000,577.000000) scale(0.100000,-0.100000)"
fill="#000000" stroke="none">
<path d="M2748 4430 c-15 -9 -37 -59 -45 -100 -11 -60 -19 -446 -11 -504 4
-27 1 -44 -8 -54 -8 -7 -12 -18 -9 -23 4 -5 1 -9 -4 -9 -6 0 -11 -9 -11 -21 0
-11 -4 -18 -9 -15 -5 4 -7 -4 -3 -16 4 -15 2 -19 -7 -13 -10 5 -12 -2 -10 -26
4 -61 1 -69 -28 -70 l-28 -1 28 -11 c28 -11 36 -25 15 -24 -7 0 -25 -1 -40 -1
l-27 -2 22 -23 c19 -19 24 -20 34 -7 14 16 14 16 18 -17 1 -13 -2 -23 -7 -23
-5 0 -7 -4 -3 -9 3 -5 1 -12 -5 -16 -5 -3 -14 -24 -20 -45 -6 -22 -15 -40 -20
-40 -6 0 -10 -4 -10 -10 0 -9 -20 -32 -139 -158 -24 -26 -55 -65 -70 -87 -14
-22 -34 -47 -43 -56 -10 -9 -18 -21 -18 -28 0 -6 -6 -11 -12 -11 -9 0 -8 -4 2
-10 13 -9 7 -14 -12 -11 -5 0 -8 -6 -8 -14 0 -8 -5 -15 -11 -15 -5 0 -8 -4 -4
-9 3 -5 -1 -15 -8 -23 -8 -7 -12 -19 -9 -26 2 -6 -3 -15 -12 -18 -9 -3 -14 -9
-11 -14 2 -4 -4 -16 -15 -28 -11 -11 -22 -33 -24 -49 -3 -15 -10 -29 -16 -31
-5 -2 -10 -10 -10 -17 0 -13 -36 -31 -52 -27 -5 1 -8 -2 -8 -8 0 -5 -6 -10
-13 -10 -7 0 -21 -11 -31 -25 -10 -14 -25 -25 -32 -25 -7 0 -16 -9 -19 -20 -4
-11 -11 -17 -17 -14 -6 4 -17 -2 -25 -12 -8 -10 -16 -18 -18 -16 -3 1 -6 -1
-7 -5 -2 -4 -14 -19 -28 -33 -84 -87 -135 -152 -161 -206 -16 -34 -29 -65 -29
-69 0 -4 -6 -21 -14 -38 -14 -33 -27 -65 -32 -82 -22 -73 -46 -164 -48 -181
-1 -11 -5 -24 -8 -30 -3 -5 -6 -22 -6 -39 -1 -49 -11 -90 -32 -136 -11 -24
-20 -51 -20 -59 0 -8 -11 -37 -25 -65 -13 -27 -25 -56 -25 -64 0 -8 -10 -46
-21 -85 -12 -39 -23 -78 -24 -86 -2 -8 -4 -15 -5 -15 -1 0 -3 -9 -4 -20 -2
-11 -6 -35 -10 -52 -9 -40 7 -93 37 -121 48 -45 188 -81 225 -58 7 4 12 5 12
1 0 -9 75 32 89 49 8 9 19 16 25 16 6 0 18 10 26 23 31 48 90 173 90 189 0 10
5 18 10 18 6 0 10 9 10 19 0 11 3 22 8 25 4 2 7 63 6 135 0 72 2 131 5 131 10
0 40 73 51 124 6 27 19 60 30 74 11 13 17 28 14 33 -3 5 1 9 8 9 9 0 14 11 13
28 0 15 4 30 10 34 6 5 5 8 -3 8 -8 0 5 18 28 40 45 44 55 47 63 26 3 -8 15
-14 27 -13 11 1 19 6 16 12 -2 6 4 11 14 11 10 0 16 -4 14 -8 -3 -4 0 -8 5 -8
6 0 11 4 11 10 0 5 16 8 35 6 19 -1 37 2 39 8 3 7 5 6 5 -1 1 -7 8 -10 17 -6
10 4 20 0 26 -10 4 -9 15 -14 23 -11 8 4 13 9 11 13 -3 4 4 7 14 7 10 0 18 -5
17 -11 -1 -5 4 -9 11 -7 6 1 12 -3 12 -9 0 -8 6 -7 17 2 11 10 14 10 9 2 -6
-12 4 -17 25 -15 4 1 5 -9 2 -21 -3 -12 -1 -18 4 -12 4 6 14 11 22 13 12 3 12
0 2 -12 -10 -12 -9 -14 10 -9 17 5 20 3 14 -8 -6 -11 -5 -12 6 -2 7 7 18 13
24 13 5 0 3 -5 -5 -10 -11 -7 -12 -10 -2 -10 17 0 43 -26 35 -34 -4 -3 1 -6
10 -6 9 0 19 -5 23 -12 5 -7 3 -8 -5 -3 -10 6 -11 3 -1 -15 11 -21 12 -21 26
-3 10 13 14 14 12 3 -2 -11 10 -15 53 -16 31 -1 64 -6 73 -11 18 -10 22 -4
-47 -69 -15 -14 -39 -44 -53 -66 -14 -22 -37 -53 -52 -70 -50 -55 -72 -108
-71 -168 1 -30 5 -67 10 -82 10 -36 67 -106 93 -115 35 -11 156 -10 180 2 12
7 37 15 56 18 73 15 130 88 135 172 1 32 13 56 57 115 31 41 72 92 91 112 34
37 114 81 129 72 4 -3 8 -1 8 4 0 5 14 15 31 22 34 14 75 53 117 109 15 20 31
39 37 43 5 4 6 8 1 8 -5 0 -4 6 2 13 6 6 20 39 31 72 19 54 24 96 19 190 -2
41 12 85 26 85 7 0 25 13 41 30 25 26 29 39 31 97 4 76 15 105 59 145 31 28
66 39 135 42 22 1 42 5 46 8 3 4 16 3 28 -1 11 -5 24 -9 28 -10 4 -1 13 -3 20
-5 29 -9 65 -18 94 -22 44 -7 57 25 42 103 -6 32 -15 67 -20 78 -5 12 -11 30
-13 40 -2 11 -4 20 -5 20 -1 0 -3 14 -5 30 -7 65 -52 177 -83 209 -31 32 -39
37 -117 71 -22 10 -60 40 -84 66 -42 47 -43 50 -42 111 0 35 3 72 5 83 12 64
20 112 21 130 2 34 25 71 58 90 18 11 39 26 48 34 20 19 99 181 99 202 0 8 5
20 11 26 13 13 19 131 8 161 -5 13 -11 42 -14 65 -6 47 -47 97 -80 97 -20 0
-86 -39 -116 -69 -9 -9 -33 -29 -54 -46 -81 -64 -131 -108 -148 -129 -17 -21
-17 -21 -29 -1 -6 11 -35 43 -66 71 l-54 51 17 36 c17 36 14 68 -8 95 -17 21
-80 50 -124 57 -34 5 -46 2 -68 -18 -23 -19 -27 -31 -27 -70 1 -38 -2 -47 -16
-47 -41 -1 -100 -14 -135 -29 -29 -12 -41 -26 -54 -59 -20 -54 -22 -52 -99 97
-69 133 -120 191 -167 191 -18 0 -40 -5 -49 -10z m962 -690 c0 -5 3 -9 8 -9
21 4 31 -3 26 -16 -4 -8 -1 -15 5 -15 6 0 8 -7 4 -17 -4 -11 -3 -14 5 -9 7 4
12 2 12 -3 0 -19 -18 -12 -47 17 -27 27 -40 62 -22 62 5 0 9 -4 9 -10z"/>
<path d="M2545 3510 c-3 -5 -2 -10 4 -10 5 0 13 5 16 10 3 6 2 10 -4 10 -5 0
-13 -4 -16 -10z"/>
</g>
</svg>
